<svg xmlns="http://www.w3.org/2000/svg" viewBox="0 0 400 225">
    <defs><style>.cls-1{fill:#f9f9f9;}.cls-2{fill:#ccc;}</style></defs>
    <rect class="cls-1" width="400" height="225"/>
    <path class="cls-2" d="M188.19,106.13a9.38,9.38,0,1,0-9.37-9.38A9.37,9.37,0,0,0,188.19,106.13Z"/>
    <path class="cls-2" d="M216.5,73.13h-33c-14.33,0-22.87,8.54-22.87,22.87v33a26.42,26.42,0,0,0,2.2,11.18c3.39,7.48,10.63,11.69,20.67,11.69h33c14.33,0,22.87-8.54,22.87-22.87V96C239.37,81.67,230.83,73.13,216.5,73.13ZM233,114.47a8.78,8.78,0,0,0-11.11,0l-16.38,14.05a8.77,8.77,0,0,1-11.1,0l-1.34-1.1a8.75,8.75,0,0,0-10.39-.55l-14.73,9.88a20.87,20.87,0,0,1-1.38-7.75V96c0-11.1,5.87-17,17-17h33c11.1,0,17,5.87,17,17v18.9Z"/>
</svg>