<svg xmlns="http://www.w3.org/2000/svg">
    <symbol id="chair" viewBox="0 0 40 80">
        <path d="M5.76,61.66C6.12,59.79,7,59,9.11,58.71c.08-1.2.11-2.42.24-3.63a2.83,2.83,0,0,1,.52-1.35c1.91-2.44,3.87-4.85,5.79-7.28a1.36,1.36,0,0,0,.35-.84,56.32,56.32,0,0,0-1.86-11.68A38.91,38.91,0,0,0,8.57,23.27L7.29,21.45,12.56,17c.67,1.38,1.31,2.66,1.92,4a47.85,47.85,0,0,1,4.41,18.81c.07,2,.11,4,.11,5.93a2.43,2.43,0,0,1-.4,1.24C17,49.3,15.38,51.65,13.8,54a2.58,2.58,0,0,0-.38,1.25c-.05,1.14,0,2.28,0,3.5,1.29,0,2.41,0,3.52,0,.17,0,.41-.37.44-.59a12.9,12.9,0,0,0,.18-2.23,7.3,7.3,0,0,1,1-3.72c1-1.79,1.85-3.6,2.74-5.42a2.37,2.37,0,0,0,.25-1.07c-.19-3.67-.33-7.35-.62-11A52.71,52.71,0,0,0,15.84,16,.81.81,0,0,1,16,14.82c1.59-1.43,3.14-2.9,4.71-4.36.28.9.67,2,1,3.15a66.63,66.63,0,0,1,2.46,14.82c.27,5.33.36,10.66.67,16a7.53,7.53,0,0,1-.94,3.95c-.68,1.33-1.26,2.71-2,4a5.31,5.31,0,0,0-.6,2.84c.05,1.14,0,2.29,0,3.49H25c.08-.93.23-1.85.23-2.77a23,23,0,0,1,1.37-7.36c1-3,.69-6,.7-9,0-2.64,0-5.29-.1-7.93-.21-6.59-.66-13.16-2.54-19.54-.35-1.2-.82-2.37-1.18-3.57a1,1,0,0,1,.15-.81A35.9,35.9,0,0,0,30.34,0c0,.42.05.64.05.86,0,15.2.05,30.41,0,45.61a27.2,27.2,0,0,1-.65,3.94,19.68,19.68,0,0,0-.24,2.53c0,2.6,0,5.19,0,7.78v.94Z"/>
        <path d="M5.64,79.85,8.4,67.05A4.58,4.58,0,0,1,5.59,63.3H29.43v3.56l-.81,0c-5.12,0-10.23,0-15.35,0-.25,0-.63.14-.7.31C12,68.51,11.51,69.88,11,71.34c.35,0,.61,0,.86,0,6.73,0,13.46,0,20.19,0,.76,0,.92-.23.92-1q-.06-34.26-.07-68.53A3.43,3.43,0,0,1,33,.73c.35.4.7.81,1.06,1.2,1.85,2,3.69,4,5.56,6a.9.9,0,0,1,.12,1.35A10.75,10.75,0,0,0,38,15.48c0,7.35-.12,14.7-.21,22q-.12,9.81-.26,19.63-.09,6.74-.19,13.46c0,1.87-.11,3.74-.09,5.61a3.2,3.2,0,0,1-.79,2.25c-.35.41-.64.86-1.13,1.53-.55-.63-1-1.24-1.55-1.78S32.6,77.14,33,76.13H32c-7.29,0-14.58,0-21.87,0a1.15,1.15,0,0,0-1.27.81c-.27.67-.64,1.29-1,1.94C7.24,80.09,7.18,80.12,5.64,79.85Z"/>
        <path d="M12.86,43.62c-.36-1.83-1.26-2.57-3.12-2.5s-4,.25-6,.44a9.79,9.79,0,0,0-2.25.52A2.06,2.06,0,0,0,0,44.22c.05,1.3.12,2.61.29,3.9a1.82,1.82,0,0,0,2.38,1.7c.75-.13,1.5-.31,2.3-.48L7.29,56.2l.22,0a3.59,3.59,0,0,0,.18-.9,3.64,3.64,0,0,1,1.17-2.52c1.44-1.58,2.83-3.2,4.22-4.82a1.23,1.23,0,0,0,.3-.82C13.25,45.93,13.08,44.77,12.86,43.62ZM11,47.9c-.92.74-1.85,1.45-3,2.31-.52-1.5-1-2.88-1.47-4.26-.29-.88-.7-1.17-1.83-1.2S3.41,44.87,3,45.83c-.08.2-.39.47-.54.44S2,46,1.94,45.75c-.1-1.65,0-2.08,1.58-2.26,1.75-.19,3.51-.32,5.27-.41a1.62,1.62,0,0,1,1.66,1.06,29.65,29.65,0,0,1,.93,3.22C11.42,47.5,11.2,47.77,11,47.9Z"/>
    </symbol>
</svg>